<?xml version="1.0" encoding="iso-8859-1"?>
<!-- Uploaded to: SVG Repo, www.svgrepo.com, Generator: SVG Repo Mixer Tools -->
<svg height="800px" width="800px" version="1.1" id="Capa_1" xmlns="http://www.w3.org/2000/svg" xmlns:xlink="http://www.w3.org/1999/xlink" 
	 viewBox="0 0 310.789 310.789" xml:space="preserve">
<g>
	<path style="fill:#010002;" d="M13.9,157.061c18.107,0.957,34.114,6.266,50.882,12.706c21.854,8.398,23.198,4.754,24.432,24.095
		c2.192,34.348-15.577,68.956-18.205,103.255c-0.876,11.406,15.779,18.618,23.214,9.616c21.582-26.14,44.138-51.421,66.846-76.571
		c20.978,30.888,38.998,69.729,77.659,78.709c6.984,1.621,15.006-2.067,16.725-9.497c9.42-40.679-14.43-77.409-26.885-115.265
		c26.532-4.177,51.247-16.442,75.026-28.898c10.253-5.374,8.093-22.327-3.247-24.851c-29.425-6.565-62.75-14.979-86.198-34.892
		c-22.403-19.02-27.342-57.154-36.812-84.006c-0.386-8.452-9.807-13.054-17.655-10.96c-5.575,1.229-10.198,5.357-10.16,11.389
		c-8.023,24.726-15.376,68.081-37.263,82.385c-11.629,7.604-28.055,10.051-41.212,14.011c-20.581,6.201-40.032,15.898-60.765,22.072
		C-4.756,134.831-1.313,156.256,13.9,157.061z M84.167,132.732c15.42-4.645,37.035-8.153,49.033-20.021
		c14.452-14.299,23.192-34.424,30.181-54.967c6.103,19.124,13.56,37.807,26.858,51.97c17.536,18.672,42.256,29.92,67.482,37.709
		c-14.887,6.271-30.355,10.818-46.656,10.998c-9.165,0.103-15.028,8.572-13.114,17.215c7.027,31.71,31.786,66.688,32.743,100.465
		c-26.026-16.279-41.195-54.472-58.97-76.979c-4.444-5.629-14.675-5.037-19.227,0c-15.278,16.883-30.497,33.793-45.498,50.91
		c6.527-26.815,13.043-53.499,6.396-81.445c-2.464-10.351-15.393-14.359-23.818-17.84c-9.089-3.758-18.063-7.364-27.114-10.514
		C69.634,137.529,76.835,134.94,84.167,132.732z"/>
</g>
</svg>